<?xml version="1.0" standalone="no"?>
<!DOCTYPE svg PUBLIC "-//W3C//DTD SVG 20010904//EN"
 "http://www.w3.org/TR/2001/REC-SVG-20010904/DTD/svg10.dtd">
<svg version="1.0" xmlns="http://www.w3.org/2000/svg"
 width="16.000000pt" height="16.000000pt" viewBox="0 0 16.000000 16.000000"
 preserveAspectRatio="xMidYMid meet">
<metadata>
Created by potrace 1.11, written by Peter Selinger 2001-2013
</metadata>
<g transform="translate(0.000000,16.000000) scale(0.010000,-0.010000)"
fill="#000000" stroke="none">
<path d="M870 1399 c0 -4 -6 -6 -14 -3 -7 3 -20 -2 -29 -10 -8 -8 -17 -12 -20
-9 -3 3 -13 -1 -21 -10 -8 -8 -13 -17 -10 -20 3 -3 -9 -8 -28 -12 -38 -9 -100
-53 -92 -66 8 -13 -10 -11 -24 3 -9 9 -13 8 -17 -4 -4 -10 -14 -14 -26 -11
-10 3 -19 1 -19 -3 0 -5 -31 -8 -70 -7 -41 2 -70 -1 -70 -7 0 -6 -9 -10 -20
-10 -11 0 -24 -8 -27 -17 -4 -10 -17 -29 -30 -43 -13 -14 -26 -35 -29 -47 -4
-13 -10 -20 -15 -17 -5 3 -9 -1 -9 -9 0 -8 -9 -22 -20 -32 -11 -10 -20 -26
-20 -37 0 -10 -5 -18 -11 -18 -5 0 -17 -17 -26 -37 -8 -21 -20 -41 -27 -45 -7
-5 -6 -8 4 -8 12 -1 11 -4 -4 -15 -10 -7 -15 -18 -12 -23 7 -11 31 -10 42 1
11 11 34 8 34 -3 0 -6 -13 -13 -30 -16 -16 -4 -30 -10 -30 -15 0 -5 -4 -9 -10
-9 -5 0 -7 7 -4 15 4 8 1 15 -5 15 -11 0 -13 -5 -16 -52 -2 -30 16 -37 45 -18
12 7 10 11 -10 18 -19 8 -12 9 33 7 43 -3 57 0 57 10 0 8 -5 17 -10 20 -6 4
-8 11 -4 16 3 5 10 7 15 3 5 -3 7 -9 4 -14 -3 -4 2 -10 10 -14 8 -3 15 -15 15
-27 0 -16 -3 -19 -13 -11 -9 7 -26 4 -60 -12 l-48 -22 37 -32 c20 -17 42 -32
49 -32 8 0 17 -4 20 -10 3 -6 -5 -10 -19 -10 -15 0 -30 8 -36 20 -6 11 -17 20
-25 20 -8 0 -15 7 -15 16 0 14 -3 14 -15 4 -11 -9 -12 -16 -5 -25 8 -9 6 -14
-6 -19 -13 -5 -16 -1 -12 23 3 20 0 27 -8 24 -16 -6 -24 -28 -31 -80 -4 -34
-2 -42 14 -46 16 -4 16 -6 -4 -12 -23 -7 -32 -25 -13 -25 6 0 10 -4 10 -10 0
-5 -10 -10 -21 -10 -18 0 -19 -3 -9 -15 12 -15 43 -13 107 7 47 14 161 91 291
195 89 73 122 94 161 102 88 19 175 53 228 89 59 40 98 45 181 27 46 -11 140
-11 227 -1 17 2 42 4 58 5 19 1 27 6 27 19 0 12 3 14 8 4 6 -9 18 -5 49 17 35
25 39 33 35 60 -4 32 -22 44 -22 15 0 -18 -40 -58 -48 -49 -3 3 5 16 17 29 21
22 21 24 4 31 -10 5 -25 7 -32 6 -13 -2 -13 0 -2 13 8 9 10 20 6 24 -4 4 -10
1 -12 -6 -3 -6 -9 -10 -13 -7 -5 3 -7 12 -3 20 4 12 0 13 -18 6 -13 -4 -24
-13 -24 -19 0 -6 -4 -14 -9 -19 -9 -8 -5 17 9 51 7 15 5 17 -13 11 -16 -5 -22
-2 -22 9 0 9 -6 15 -12 14 -7 -2 -12 3 -10 10 1 6 -4 12 -12 12 -8 0 -16 5
-18 11 -2 6 -19 11 -39 11 -38 0 -75 21 -65 37 4 5 2 12 -4 16 -6 3 -15 -4
-20 -17 -11 -23 -11 -23 -6 0 2 12 0 22 -6 22 -5 0 -6 5 -3 11 4 6 -2 13 -14
16 -12 3 -21 10 -21 15 0 5 -4 7 -8 4 -5 -3 -22 3 -39 14 -18 10 -40 16 -52
13 -12 -3 -28 0 -36 7 -18 15 -65 22 -65 9z m40 -20 c0 -5 -7 -9 -15 -9 -15 0
-20 12 -9 23 8 8 24 -1 24 -14z m53 -66 c-25 -40 -25 -41 -18 -10 7 27 6 28
-21 22 -22 -5 -25 -4 -14 4 8 6 27 11 43 11 l27 0 -17 -27z m-89 -18 c-20 -14
-34 -11 -34 7 0 6 3 9 6 5 4 -3 14 1 22 10 11 11 17 12 20 4 2 -7 -4 -18 -14
-26z m123 13 c-3 -8 -6 -5 -6 6 -1 11 2 17 5 13 3 -3 4 -12 1 -19z m40 -10
c-3 -8 -6 -5 -6 6 -1 11 2 17 5 13 3 -3 4 -12 1 -19z m-227 2 c0 -5 -4 -10
-10 -10 -5 0 -10 5 -10 10 0 6 5 10 10 10 6 0 10 -4 10 -10z m270 0 c0 -5 -2
-10 -4 -10 -3 0 -8 5 -11 10 -3 6 -1 10 4 10 6 0 11 -4 11 -10z m-312 -46 c0
-18 -3 -22 -9 -13 -11 18 -11 52 0 45 5 -3 9 -17 9 -32z m245 16 c17 0 19 -2
9 -12 -7 -7 -18 -13 -25 -13 -9 0 -11 -26 -8 -96 2 -53 -1 -99 -5 -102 -5 -3
-10 34 -10 81 -1 54 -6 88 -13 90 -6 2 -9 8 -5 13 3 5 -4 9 -15 9 -12 0 -21
-5 -21 -11 0 -5 -4 -7 -10 -4 -5 3 -10 16 -10 28 0 16 3 18 12 9 19 -19 46
-14 59 10 8 14 14 18 17 10 2 -6 13 -12 25 -12z m47 0 c0 -5 -5 -10 -11 -10
-5 0 -7 5 -4 10 3 6 8 10 11 10 2 0 4 -4 4 -10z m-203 -32 c-3 -7 -5 -2 -5 12
0 14 2 19 5 13 2 -7 2 -19 0 -25z m237 17 c-4 -8 -11 -12 -16 -9 -6 4 -5 10 3
15 19 12 19 11 13 -6z m-264 -16 c0 -6 -4 -7 -10 -4 -5 3 -10 11 -10 16 0 6 5
7 10 4 6 -3 10 -11 10 -16z m-140 -9 c0 -5 -2 -10 -4 -10 -3 0 -8 5 -11 10 -3
6 -1 10 4 10 6 0 11 -4 11 -10z m460 -11 c0 -14 -27 -10 -33 5 -4 10 0 12 14
9 10 -3 19 -9 19 -14z m-630 -4 c9 -10 9 -15 1 -15 -6 0 -11 4 -11 9 0 10 -19
9 -37 -2 -7 -5 -13 -4 -13 2 0 22 43 26 60 6z m554 -37 c-2 -75 -4 -88 -15
-88 -7 0 -9 8 -4 23 8 25 8 31 2 72 -5 32 0 48 11 41 4 -2 7 -24 6 -48z m108
27 c3 -16 1 -25 -7 -25 -8 0 -10 9 -7 25 2 14 6 25 7 25 1 0 5 -11 7 -25z m78
-25 c-6 -11 -13 -20 -15 -20 -3 0 -5 9 -5 20 0 11 7 20 15 20 13 0 14 -4 5
-20z m-710 -83 c0 -5 9 -23 21 -40 l21 -32 -26 30 c-14 17 -26 35 -26 40 0 6
-12 18 -26 28 -19 14 -34 17 -64 12 -22 -4 -40 -10 -40 -13 0 -11 -50 -31 -55
-22 -3 4 5 10 16 13 12 3 19 10 16 14 -3 5 6 10 21 11 15 1 29 7 30 12 2 6 13
10 24 10 15 0 19 5 14 18 -3 9 12 -3 34 -28 22 -25 40 -49 40 -53z m-9 76 c13
-16 12 -17 -3 -4 -10 7 -18 15 -18 17 0 8 8 3 21 -13z m376 -20 c-3 -10 -5 -4
-5 12 0 17 2 24 5 18 2 -7 2 -21 0 -30z m-261 -1 c-4 -3 -14 2 -24 12 -16 18
-16 18 6 6 13 -6 21 -14 18 -18z m63 -2 c11 -24 11 -24 -3 -6 -9 11 -16 24
-16 30 0 12 5 7 19 -24z m466 0 c3 -5 1 -10 -4 -10 -6 0 -11 5 -11 10 0 6 2
10 4 10 3 0 8 -4 11 -10z m96 -13 c-10 -9 -11 -8 -5 6 3 10 9 15 12 12 3 -3 0
-11 -7 -18z m-593 -53 c-3 -14 -5 -12 -10 9 -3 19 -2 25 4 19 6 -6 8 -18 6
-28z m-194 -19 c15 -25 26 -48 23 -51 -3 -3 -16 13 -29 35 -23 41 -48 54 -48
26 0 -9 -12 -20 -27 -26 -16 -6 -35 -17 -44 -25 -15 -14 -17 -13 -15 3 1 14
-5 18 -29 16 -29 -2 -29 -2 -5 6 14 5 38 9 53 10 17 1 37 11 50 26 12 13 27
25 32 25 6 0 23 -20 39 -45z m131 13 l16 -33 -20 25 c-20 24 -26 40 -16 40 2
0 12 -15 20 -32z m301 -2 c2 -14 0 -26 -6 -26 -5 0 -10 14 -10 32 0 36 9 33
16 -6z m249 4 c1 -11 -2 -20 -7 -20 -4 0 -8 12 -8 27 0 30 13 24 15 -7z m-365
-1 c0 -6 -4 -7 -10 -4 -5 3 -10 11 -10 16 0 6 5 7 10 4 6 -3 10 -11 10 -16z
m471 4 c12 -15 12 -16 -3 -10 -10 3 -18 2 -18 -2 0 -5 -7 -12 -15 -15 -13 -5
-12 -1 2 19 22 29 18 28 34 8z m52 2 c-3 -9 -8 -14 -10 -11 -3 3 -2 9 2 15 9
16 15 13 8 -4z m52 -15 c-9 -16 -17 -30 -18 -30 -1 0 -3 11 -3 25 -1 14 2 22
7 19 5 -3 9 0 9 5 0 6 5 11 10 11 6 0 4 -13 -5 -30z m-328 -12 c-3 -8 -6 -5
-6 6 -1 11 2 17 5 13 3 -3 4 -12 1 -19z m-233 -13 c-4 -8 -8 -15 -10 -15 -2 0
-4 7 -4 15 0 8 4 15 10 15 5 0 7 -7 4 -15z m483 -17 c-3 -8 -6 -5 -6 6 -1 11
2 17 5 13 3 -3 4 -12 1 -19z m-897 -19 c0 -5 5 -7 10 -4 6 3 10 -1 10 -9 0
-22 -17 -20 -30 4 -7 14 -7 20 0 20 5 0 10 -5 10 -11z m-87 -16 c-7 -2 -21 -2
-30 0 -10 3 -4 5 12 5 17 0 24 -2 18 -5z m310 -47 c-3 -5 -12 2 -19 15 -20 35
-17 45 5 18 11 -13 17 -28 14 -33z m-146 12 c38 -42 38 -53 2 -30 -27 16 -38
19 -47 10 -16 -16 -15 -3 0 22 16 25 20 25 45 -2z m-90 -12 c-6 -14 2 -24 58
-71 l30 -26 -42 21 c-24 11 -43 27 -43 35 0 8 -6 16 -12 17 -7 0 -17 2 -23 3
-5 2 -14 3 -19 4 -5 0 -3 8 4 16 16 19 54 20 47 1z m-69 -24 c14 -14 17 -23
10 -30 -7 -7 0 -15 23 -25 33 -14 102 -77 84 -77 -5 0 -25 11 -44 23 -20 13
-49 32 -65 41 -20 13 -25 21 -18 28 20 20 -5 48 -44 48 -20 0 -33 4 -29 9 9
16 61 5 83 -17z m32 -174 c-1 -8 -6 -6 -15 6 -20 26 -19 42 0 22 8 -8 15 -21
15 -28z"/>
<path d="M1238 925 c-2 -2 -25 -5 -53 -8 -71 -8 -110 -22 -165 -57 -57 -37
-64 -50 -43 -81 l16 -24 -25 23 c-19 17 -28 20 -33 11 -5 -7 5 -23 25 -41 18
-15 31 -30 28 -33 -2 -3 -19 10 -37 29 l-33 34 -49 -21 c-38 -16 -49 -26 -46
-39 3 -10 1 -18 -4 -18 -5 0 -9 7 -9 15 0 18 1 18 -39 4 -32 -11 -39 -27 -20
-46 6 -6 9 -17 6 -25 -3 -8 -9 -2 -16 15 -8 21 -17 28 -34 25 -18 -2 -21 -8
-19 -30 2 -16 -1 -28 -7 -28 -6 0 -10 10 -8 23 1 17 -3 22 -18 20 -11 -1 -49
-3 -85 -4 -91 -3 -139 -20 -223 -78 -91 -63 -136 -140 -105 -178 15 -19 28
-16 28 6 0 27 10 51 22 51 6 0 7 -8 3 -17 -4 -10 -7 -25 -8 -33 0 -8 -6 -22
-14 -32 -13 -14 -11 -17 16 -23 17 -4 29 -11 25 -16 -3 -5 4 -9 14 -9 11 0 25
-7 32 -15 7 -8 16 -12 21 -9 5 2 22 -2 38 -11 37 -19 45 -19 37 0 -3 8 -1 15
5 15 5 0 12 -7 16 -16 3 -8 17 -20 32 -25 20 -8 28 -7 38 7 11 15 13 15 22
-10 13 -34 51 -37 45 -3 -3 13 2 8 12 -13 13 -26 18 -31 21 -17 5 18 23 24 23
7 0 -11 33 -14 43 -4 3 3 -3 29 -15 58 -43 107 -84 286 -60 262 4 -4 7 -11 7
-14 0 -4 4 -13 9 -20 4 -8 10 -26 12 -40 9 -74 49 -218 67 -240 8 -10 14 -9
28 4 11 10 19 21 19 27 0 5 -18 48 -40 95 -23 48 -42 99 -44 115 -6 51 10 17
71 -148 14 -38 30 -76 35 -83 15 -18 31 -15 24 5 -6 14 -3 14 15 -3 22 -19 22
-19 15 4 -5 13 -3 22 3 22 6 0 11 -5 11 -11 0 -5 4 -8 10 -4 5 3 6 15 0 29 -5
13 -4 29 1 37 6 10 9 7 9 -12 0 -14 8 -33 18 -42 24 -22 35 -21 28 1 -4 12 -1
19 9 20 8 1 22 3 30 4 17 2 28 25 18 41 -4 7 5 4 20 -6 22 -14 27 -15 27 -3 0
8 -5 18 -10 21 -6 4 -7 11 -4 17 4 6 13 -1 21 -17 10 -18 18 -24 25 -17 7 7 6
17 -1 30 -19 35 -12 38 15 7 l25 -30 -4 30 c-2 17 -8 38 -12 48 -4 10 -3 17 5
17 6 0 9 -4 5 -9 -5 -10 32 -51 46 -51 4 0 5 10 2 23 -4 20 -3 21 10 5 21 -27
29 -22 23 14 -5 30 -5 31 6 11 13 -26 28 -30 28 -8 0 8 9 19 20 25 12 6 20 21
20 35 0 19 4 23 16 18 10 -4 22 1 30 11 7 10 17 15 23 11 15 -9 14 18 -1 34
-8 9 -9 12 -1 7 15 -8 43 3 43 18 0 7 -16 28 -36 47 -20 18 -43 48 -51 64 -13
25 -7 21 31 -19 25 -26 46 -52 46 -57 0 -19 20 -8 34 20 12 22 12 31 3 40 -9
10 -8 12 8 9 29 -5 32 29 3 35 -18 3 -16 5 8 6 23 1 33 7 37 23 9 34 -8 56
-102 125 -2 2 -2 6 2 9 3 3 16 -3 28 -14 12 -12 36 -28 54 -36 18 -9 36 -23
39 -32 3 -8 10 -12 16 -9 6 4 4 16 -7 31 -9 14 -12 24 -7 22 10 -3 14 4 14 24
0 6 -3 9 -6 5 -4 -3 -15 4 -24 16 -17 20 -28 22 -119 23 -55 1 -102 0 -103 -1z
m192 -25 c0 -5 -2 -10 -4 -10 -3 0 -8 5 -11 10 -3 6 -1 10 4 10 6 0 11 -4 11
-10z m-116 -100 c15 -27 31 -52 36 -55 6 -3 15 -15 20 -25 8 -15 7 -18 -3 -14
-8 3 -26 27 -41 53 -14 27 -33 54 -41 61 -16 14 -20 30 -7 30 5 0 21 -22 36
-50z m-263 30 c10 -6 19 -16 19 -23 0 -8 -3 -9 -8 -1 -4 6 -16 16 -27 22 -25
14 -11 16 16 2z m70 -7 c13 -16 12 -17 -3 -4 -10 7 -18 15 -18 17 0 8 8 3 21
-13z m85 -88 l17 -30 -32 30 c-18 17 -37 38 -43 49 -10 18 -9 18 15 0 14 -11
33 -32 43 -49z m214 56 c0 -18 -18 -21 -30 -6 -10 13 -9 15 9 15 11 0 21 -4
21 -9z m-50 -31 c0 -5 -2 -10 -4 -10 -3 0 -8 5 -11 10 -3 6 -1 10 4 10 6 0 11
-4 11 -10z m-191 -114 c-3 -3 -11 5 -18 17 -13 21 -12 21 5 5 10 -10 16 -20
13 -22z m-326 -6 c3 -11 1 -20 -4 -20 -5 0 -9 4 -9 9 0 5 -3 17 -7 27 -4 11
-3 15 4 11 6 -4 13 -16 16 -27z m428 3 c18 -20 19 -23 4 -13 -32 24 -47 40
-37 40 4 0 19 -12 33 -27z m-724 -35 c-3 -8 -6 -5 -6 6 -1 11 2 17 5 13 3 -3
4 -12 1 -19z m542 -43 c17 -25 27 -45 23 -45 -4 0 -19 20 -34 45 -15 25 -26
45 -23 45 2 0 17 -20 34 -45z m152 -7 c16 -30 3 -20 -27 20 -23 30 -24 33 -5
17 13 -11 27 -28 32 -37z m-767 -103 c3 -27 8 -66 10 -85 5 -31 4 -30 -10 10
-8 25 -17 79 -19 120 -3 57 -2 67 4 40 5 -19 12 -57 15 -85z m425 45 c11 -22
19 -40 17 -40 -6 0 -46 65 -46 74 0 14 9 4 29 -34z m302 3 c13 -16 12 -17 -3
-4 -10 7 -18 15 -18 17 0 8 8 3 21 -13z m-882 -80 c-1 -37 -3 -42 -8 -23 -7
24 -3 70 5 70 2 0 4 -21 3 -47z m120 -12 c11 -35 15 -68 6 -59 -3 3 -11 29
-19 57 -14 56 -6 58 13 2z m81 39 c0 -5 -5 -10 -11 -10 -5 0 -7 5 -4 10 3 6 8
10 11 10 2 0 4 -4 4 -10z m-146 -42 c4 -17 2 -28 -4 -28 -5 0 -10 6 -11 13 0
6 -3 23 -5 37 -6 33 11 13 20 -22z m224 -78 l0 -25 -7 25 c-5 14 -11 48 -14
75 l-6 50 14 -50 c7 -27 13 -61 13 -75z m367 70 c9 -16 12 -30 7 -30 -8 0 -32
42 -32 55 0 13 11 2 25 -25z m-555 -51 c0 -10 -4 -19 -10 -19 -5 0 -9 11 -8
24 3 28 18 24 18 -5z m117 -11 c-3 -8 -6 -5 -6 6 -1 11 2 17 5 13 3 -3 4 -12
1 -19z m-30 -40 c-3 -7 -5 -2 -5 12 0 14 2 19 5 13 2 -7 2 -19 0 -25z"/>
</g>
</svg>
