<?xml version="1.0" encoding="utf-8"?>
<!-- Generator: Adobe Illustrator 19.2.1, SVG Export Plug-In . SVG Version: 6.00 Build 0)  -->
<svg version="1.1" id="Layer_1" xmlns="http://www.w3.org/2000/svg" xmlns:xlink="http://www.w3.org/1999/xlink" x="0px" y="0px"
	 viewBox="0 0 923 250" style="enable-background:new 0 0 923 250;" xml:space="preserve">
<style type="text/css">
	.st0{fill:#FFFFFF;}
</style>
<g id="layer1">
	<path class="st0" d="M168,243.1c-18-4.4-25.1-27.4-19.9-64.3c5.6-40.4,27.9-93.8,50.6-121c2.1-2.5,3.5-4.9,3.1-5.1
		c-0.4-0.3-8.1-2.8-17-5.6c-43.3-13.5-78.5-19.3-104-17.1c-15.1,1.3-22.9,3.3-33.8,8.5C31,46.1,19.9,58.4,14.1,75
		c-2.6,7.4-3,9.9-3,19.5c0,9.1,0.4,12,2.4,16.9c4.2,10.7,12.2,17.2,20.4,16.5c5.5-0.5,5.2,0.8-0.4,2.1c-19.2,4.6-33.7-13-31.6-38.3
		c3-36.3,35.1-61.4,84-65.8c44-3.9,109.9,11.7,187.6,44.4c35,14.7,33.2,13.8,31.4,15.8c-2.3,2.5-7.8,4.2-12.2,3.6
		c-2-0.2-11.6-4-21.2-8.4s-26.2-11.5-36.9-15.8l-19.4-7.9l-3.9,4.4c-30,34.8-53.7,97.7-54.1,143.5c-0.1,18.9,3.3,28.9,11.5,33.1
		c11.1,5.7,44.5-5.9,74.8-26.1c16.7-11.1,22.7-16,25-20.4c4.4-8.8,15.6-18.4,26-22.5c6.8-2.7,31.7-5.2,33.5-3.4
		c0.4,0.3-1.1,3.7-3.3,7.5c-9.6,16.2-9.2,31.3,1,38c3.2,2.2,4.5,2.5,8.4,1.9c10.1-1.3,26.3-11.9,37.4-24.4c4.5-5,5-6.1,4.9-10.1
		v-4.6l-6-2.8c-7.1-3.4-16.7-12-20.3-18.2c-11.8-20.1-2.4-42.2,20.4-48.1c5.3-1.4,9.3-1.6,21.6-1.1l15,0.7l4.4-6.3
		c5.2-7.4,19.5-22.4,24.8-26.1c4.1-2.8,14.9-5.3,16.4-3.8c0.5,0.5-1.3,2.5-4.6,5.1c-8.8,6.8-30.9,31.2-29.5,32.5
		c1.2,1.1,28.8,2.6,45.9,2.6c11.4,0,20,0.4,20,0.9s-1.5,2.1-3.2,3.6l-3.3,2.8l-24-0.6c-13.2-0.3-27.6-1.1-32-1.7
		c-9.3-1.3-8.5-1.9-16.2,12.5c-8.6,16.1-15.5,33.4-16.9,42.6l-0.7,3.9h4.7c2.6,0,5.6-0.5,6.7-1c1.3-0.7,1.9-0.7,1.9-0.1
		c0,1.5-4.8,3.8-9.7,4.6c-4.1,0.6-4.2,0.8-4.9,5.1c-0.7,5.1,0.8,14.9,3.2,19.9c0.9,2,3.3,4.8,5.2,6.3c3.1,2.4,4.4,2.7,11.2,2.7
		c6.7,0,8.4-0.4,14.3-3.4c4.1-2.1,10.1-6.5,15.1-11.3c7.9-7.3,8.5-8.2,10.6-15c3.1-10.2,6.4-16.4,9.2-17.2c1.3-0.3,4.5-0.6,7.1-0.6
		c6.1,0,6.8,1.6,2.9,7.2c-5.3,7.7-8.4,15-8.9,20.7c-0.6,6.7,0.7,10.4,4.3,12.8c9.4,6.1,39.2-5.2,52.7-20.2
		c5.9-6.6,12-10.8,19.7-13.9c6.8-2.7,31.7-5.2,33.5-3.4c0.4,0.3-1.1,3.7-3.3,7.5c-9.6,16.2-9.2,31.3,1,38c3.2,2.2,4.5,2.5,8.4,1.9
		c9.2-1.2,21-8.4,33.8-20.5c4.8-4.6,10-13.9,12.6-22.8c1.4-4.6,2.7-5.3,10-5.3c7.8,0,8,0.7,2.3,10.7c-2.8,4.8-6.1,10.8-7.2,13.3
		l-2.2,4.5l3.8-4c2.1-2.2,6.6-7.5,10.1-11.8c9.7-11.9,18.4-17.1,25.5-15c5.1,1.4,5.3,2.9,1.8,14.4c-3.9,13.2-5.1,19.5-5.1,27.8
		c0,7.6,1.7,11.1,5.5,11.1c5.6,0,19.6-9,36.1-23.2c8.7-7.5,9.3-8.3,12.8-16.6c2-4.8,3.6-9.1,3.6-9.5s-1.6-2.8-3.6-5.3
		c-1.9-2.6-4.4-6.4-5.5-8.6c-1.9-3.6-1.9-3.8-0.1-3.8c1.2,0,3.3,2.4,6,6.5c2.3,3.6,4.5,6.5,4.9,6.5s1.9-2.6,3.2-5.8
		c4.9-11.5,20.1-42,27.1-54.2c16-27.8,29.7-46.6,44.2-60.5c9.9-9.6,15.9-14,25.3-18.8c12.2-6.1,20.5-8.1,33-8.1
		c18.5,0,33.1,5.6,45.9,17.5c18,16.8,20.3,37.5,7.1,61.7c-20.2,36.6-70.4,72.2-119.8,84.9c-8.5,2.1-12.9,2.6-26.2,2.9
		c-8.8,0.2-18.2,0.9-20.9,1.6l-4.9,1.2l0.7,6.6c1.8,19.3,8.4,26.8,20.9,23.5c13.9-3.6,27.7-13.7,42.1-30.9c5.2-6.1,12-11.1,19.6-14
		c6.8-2.7,31.7-5.2,33.5-3.4c0.4,0.3-1.1,3.7-3.3,7.5c-9.6,16.2-9.2,31.3,1,38c3.1,2.1,4.6,2.5,8.1,2c10.5-1.5,21.4-8.3,35.5-22.5
		c6.2-6.3,10.9-10.2,11.9-10c1.2,0.2,0.1,2.1-4.4,7.8c-9.8,12.4-19.7,20.1-30.8,24.2c-8.6,3.1-23.3,3.2-29,0.1
		c-7.7-4.1-11.5-10.5-11.5-19.3v-5l-6.9,5.8c-8.8,7.3-15.8,11.1-21.8,11.8c-6.5,0.8-10.2-0.8-10.9-4.5l-0.6-2.9l-6,4.8
		c-10.3,8.3-24.2,14-34.2,14c-5.6,0-12.3-2.9-15.9-6.9c-3.2-3.6-7.7-13.3-7.7-16.7c0-2.8-1.8-0.4-3.5,4.6c-1.6,4.7-1.8,4.9-6,5.5
		c-3.9,0.6-10.5-0.1-10.5-1.1c0-0.2,1.1-3.3,2.5-6.9l2.5-6.6l-7.8,7.1c-9,8.4-22.2,17.4-29.2,20.1c-10,3.8-17.4,1.9-21.1-5.3
		c-2.6-5.2-2.8-15.2-0.5-30.5c0.9-5.7,1.6-10.8,1.6-11.5c0-1.8-4.3,2.7-13.3,13.7c-14.4,17.4-15.5,18.5-19.6,18.5
		c-4.3,0-6.1-1.4-6.1-4.8c0-2.2-0.4-2.1-5.2,2.4c-13,11.7-22.5,15.8-36.8,15.8c-7.8,0-10.2-0.3-13.5-2.1
		c-7.7-4.1-11.5-10.5-11.5-19.3v-5l-7.2,6.1c-10.3,8.6-15.8,11.3-23.6,11.3c-7.7,0.1-9.7-1.6-8.7-7.7l0.6-3.9l-3,2.1
		c-4.9,3.5-17.2,8.9-24.1,10.7c-8.5,2.2-19.1,1.5-25.4-1.5c-4.9-2.4-8.6-7.7-8.6-12.3c0-2-0.5-1.7-4.7,2.4
		c-11.4,11.1-28.4,18.5-40,17.4c-7-0.6-14.5-3.7-17.3-7.3c-1.9-2.4-4.4-8.6-5.4-13.5c-0.6-2.6-0.7-2.5-7.3,4.1
		c-13.6,13.5-24.1,18.5-39.3,18.5c-7.8,0-10.2-0.3-13.5-2.1c-7.7-4.1-11.5-10.5-11.5-19.3v-5l-6.9,5.8
		c-10.5,8.8-16.3,11.6-23.9,11.7c-5.3,0-6.6-0.3-8-2.2l-1.7-2.1l-9,6.5c-23.6,17.1-51.6,30.2-72.3,33.8
		C174.6,244.1,172.6,244.2,168,243.1z M284.9,199.5c8.9-5.8,21.5-17.2,22.8-20.4c0.6-1.4,1.6-4.1,2.4-5.8c0.7-1.8,0.9-3.3,0.4-3.3
		c-2.6,0-12.1,4.6-17.6,8.6c-9.3,6.6-15.3,14.4-17.9,23.2C274,205.3,277.2,204.6,284.9,199.5z M524.5,199
		c12.3-8.1,20.8-16.5,23.5-23.3l2.3-5.9l-2.6,0.7c-13.1,3.3-29.3,17.6-32.8,29c-1.2,4.1-1.2,4.5,0.4,4.5
		C516.3,204,520.4,201.8,524.5,199z M806.5,199c12.2-8,20.8-16.6,23.5-23.2c1.2-3.2,1.9-5.8,1.4-5.8c-2.5,0-12.1,4.7-17.5,8.6
		c-9.3,6.6-15.3,14.4-17.9,23.2C795,205.4,798.3,204.6,806.5,199z M731.7,180.2l2.8-1.8l-3.4-1.6c-3.3-1.6-3.4-1.6-4.5,0.8
		c-0.6,1.4-1.1,2.9-1.1,3.4C725.5,182.6,728.8,182.1,731.7,180.2z M781.7,177.6c24.8-6.3,57.7-24.1,81.8-44.4
		c17.1-14.3,27.6-27,34.6-41.7c5.3-11.4,6.8-18,6.2-28.8c-0.4-7.4-1-9.6-4.3-16.3c-9.9-20.2-33.1-33.3-53.8-30.4
		c-13.7,2-24.5,8-38.8,21.7c-26.8,25.7-49.8,62.6-70,112.2c-3.3,7.9-5.9,14.7-5.9,15.1c0,0.4,1.7-0.1,3.7-1.1
		c3.7-1.9,11.5-2.5,14.8-1.3c4,1.6,3.7,10.1-0.5,13.9c-1.1,1-2,2.2-2,2.6C747.5,181.8,769,180.8,781.7,177.6z M737.5,174.1
		c1.5-2.8,1.3-8.1-0.3-8.1c-0.7,0-2.8,1.5-4.6,3.4l-3.3,3.4l2.8,1.6C735.9,176.4,736.2,176.4,737.5,174.1z M378.5,167.5
		c0-5.7,12.4-35.8,20.4-49.4c2-3.5,3.5-6.5,3.4-6.7c-0.2-0.1-4.4-0.8-9.3-1.5c-11-1.4-24.6-0.7-30,1.5
		c-11.3,4.8-15.1,15.2-10.7,29.3c3.2,10.1,10.2,19,20.1,25.4C377.5,169.4,378.5,169.6,378.5,167.5z"/>
	<path class="st0" d="M469.5,139.3c-5.9-2.3-2.3-12.3,4.4-12.3c7.3,0,7.7,6.4,0.6,11.3C471.9,140.1,471.8,140.1,469.5,139.3z"/>
</g>
</svg>
